<svg xmlns="http://www.w3.org/2000/svg" xmlns:xlink="http://www.w3.org/1999/xlink" width="272.96" height="217.004" viewBox="0 0 272.96 217.004">
  <defs>
    <linearGradient id="linear-gradient" x1="0.5" y1="1" x2="0.5" gradientUnits="objectBoundingBox">
      <stop offset="0" stop-color="gray" stop-opacity="0.251"/>
      <stop offset="0.54" stop-color="gray" stop-opacity="0.122"/>
      <stop offset="1" stop-color="gray" stop-opacity="0.102"/>
    </linearGradient>
  </defs>
  <g id="undraw_book_lover_mkck" transform="translate(0 -0.008)">
    <path id="Path_4" data-name="Path 4" d="M258.417,99.167c-17.271-.6-33.724-6.175-49.431-12.276S177.719,74.031,160.861,70.8c-10.843-2.079-23.244-2.372-31.978,3.44-8.409,5.6-11.126,15.251-12.585,24.213-1.1,6.741-1.745,13.834,1.268,20.146,2.09,4.382,5.8,8.065,8.366,12.276,8.932,14.6,2.621,32.611-7.059,46.869-4.537,6.69-9.807,13.076-13.309,20.191s-5.124,15.278-2.06,22.542c3.04,7.205,10.28,12.607,18.12,16.409,15.929,7.726,34.692,9.935,53,11.187,40.518,2.773,81.25,1.572,121.874.371,15.035-.446,30.134-.9,44.924-3.221,8.214-1.292,16.692-3.338,22.657-8.286,7.568-6.279,9.444-16.914,4.374-24.786-8.51-13.207-32.024-16.487-37.98-30.663-3.272-7.8.091-16.49,4.846-23.727,10.2-15.521,27.308-29.139,28.21-46.88.619-12.188-7.606-24.389-20.319-30.156-13.325-6.066-31.808-5.3-41.634,4.707C291.454,95.741,273.665,99.7,258.417,99.167Z" transform="translate(-98.335 -62.489)" fill="#6f35a5" opacity="0.1"/>
    <path id="Path_5" data-name="Path 5" d="M159.579,476.117l-91.342-.446L59.16,454.383l32.093-2.33-5.593-23.34,63.476-8.227-60.784-21.13,5.369-1.276,97.739,15.945-5.383,36.424-7.694,20.017Z" transform="translate(-43.372 -291.841)" fill="#6f35a5"/>
    <path id="Path_6" data-name="Path 6" d="M187,698.6s5.6-.9,8.967,3.064c0,0-2.466,1.943-7.771-.747Z" transform="translate(-160.735 -523.687)" fill="#6f35a5"/>
    <path id="Path_7" data-name="Path 7" d="M178.475,698.51s-3.576,4.4-1.815,9.3c0,0,2.914-1.166,3.232-7.107Z" transform="translate(-152.797 -523.684)" fill="#6f35a5"/>
    <path id="Path_8" data-name="Path 8" d="M172.76,667.49s2.242-4.112,11.208,1.644c0,0-1.2,2.765-5.156,2.541S173.806,669.657,172.76,667.49Z" transform="translate(-150.295 -499.899)" fill="#6f35a5"/>
    <path id="Path_9" data-name="Path 9" d="M156.572,670.278s-4.651-.534-5.1,10.114c0,0,2.949.611,5.044-2.757S157.749,672.378,156.572,670.278Z" transform="translate(-134.687 -502.983)" fill="#6f35a5"/>
    <path id="Path_10" data-name="Path 10" d="M160.44,627.626s2.615-7.248,12.1-2.092c0,0-2.167,6.65-11.134,4.558Z" transform="translate(-141.263 -468.825)" fill="#6f35a5"/>
    <path id="Path_11" data-name="Path 11" d="M149.52,588.468s4.932-7.323,13.674-.534c0,0-3.064,6.874-12.927,3.138Z" transform="translate(-133.257 -440.502)" fill="#6f35a5"/>
    <path id="Path_12" data-name="Path 12" d="M145.6,551.006s5.754-6.728,14.411,0c0,0-5.455,5.9-14.411,1.719Z" transform="translate(-130.383 -413.351)" fill="#6f35a5"/>
    <path id="Path_13" data-name="Path 13" d="M142.24,512.8s5.828-7.024,14.122-.374c0,0-6.576,6.2-14.122,2.017Z" transform="translate(-127.92 -385.163)" fill="#6f35a5"/>
    <path id="Path_14" data-name="Path 14" d="M144.2,474.513s6.138-9.041,13.9-2.914c0,0-6.576,7.771-13.9,4.633Z" transform="translate(-129.357 -355.766)" fill="#6f35a5"/>
    <path id="Path_15" data-name="Path 15" d="M149.52,436.577s6.5-8.967,14.048-2.092c0,0-7.7,7.771-14.048,3.736Z" transform="translate(-133.257 -328.217)" fill="#6f35a5"/>
    <path id="Path_16" data-name="Path 16" d="M156.716,398.56s7.7-8.428,14.411-5.07c0,0-8.019,8.951-14.747,7.307Z" transform="translate(-138.287 -299.483)" fill="#6f35a5"/>
    <path id="Path_17" data-name="Path 17" d="M165.99,360.858s8.881-10.322,14.048-6.874c0,0-6.544,8.006-14.678,8.807Z" transform="translate(-144.87 -270.583)" fill="#6f35a5"/>
    <path id="Path_18" data-name="Path 18" d="M179.4,325.108s7.774-8.428,13.453-6.335c0,0-6.65,8.742-14.5,8.967Z" transform="translate(-154.401 -245.041)" fill="#6f35a5"/>
    <path id="Path_19" data-name="Path 19" d="M194.414,288.92s8.593-8.07,12.329-6.65c0,0-6.2,8.967-12.7,8.444Z" transform="translate(-165.896 -218.401)" fill="#6f35a5"/>
    <path id="Path_20" data-name="Path 20" d="M208.32,250.061s7.4-9.642,11.435-8.895c0,0-4.486,8.6-11.435,9.874Z" transform="translate(-176.366 -188.359)" fill="#6f35a5"/>
    <path id="Path_21" data-name="Path 21" d="M221.56,209.8s6.538-7.389,10.071-7.373c0,0-5.161,9.874-10.341,9.783Z" transform="translate(-185.874 -159.99)" fill="#6f35a5"/>
    <path id="Path_22" data-name="Path 22" d="M228.373,158.113l6.317-15.393s.315,13.914-7.12,18.248Z" transform="translate(-190.478 -116.215)" fill="#6f35a5"/>
    <path id="Path_23" data-name="Path 23" d="M240.073,98.6s1.046-12.855.374-13.9c0,0,4.515,10.688-.416,19.58Z" transform="translate(-199.613 -73.678)" fill="#6f35a5"/>
    <path id="Path_24" data-name="Path 24" d="M129.879,635.564s-6.549-4.059-10.789,5.871c0,0,5.828,3.87,11.561-3.339Z" transform="translate(-110.948 -476.934)" fill="#6f35a5"/>
    <path id="Path_25" data-name="Path 25" d="M115.959,594.584s-8.033-3.664-11.929,6.7c0,0,6.2,4.27,12.66-4.083Z" transform="translate(-99.907 -447.031)" fill="#6f35a5"/>
    <path id="Path_26" data-name="Path 26" d="M104.611,553.316s-5.754-6.728-14.411,0c0,0,5.455,5.9,14.411,1.719Z" transform="translate(-89.768 -415.045)" fill="#6f35a5"/>
    <path id="Path_27" data-name="Path 27" d="M102.7,512.8s-5.828-7.024-14.122-.374c0,0,6.576,6.2,14.122,2.017Z" transform="translate(-88.58 -385.163)" fill="#6f35a5"/>
    <path id="Path_28" data-name="Path 28" d="M108.555,470.484s-4.088-10.128-12.975-5.772c0,0,4.8,8.98,12.612,7.454Z" transform="translate(-93.712 -351.48)" fill="#6f35a5"/>
    <path id="Path_29" data-name="Path 29" d="M115.526,430.6s-4.064-10.3-13.076-5.527c0,0,5.519,9.444,12.676,7.117Z" transform="translate(-98.749 -322.295)" fill="#6f35a5"/>
    <path id="Path_30" data-name="Path 30" d="M135.963,381.038s-1.6-11.3-9.073-12.308c0,0,1.585,11.913,8.067,14.344Z" transform="translate(-116.666 -281.911)" fill="#6f35a5"/>
    <path id="Path_31" data-name="Path 31" d="M149.742,343.065s-.624-13.61-6.8-14.085c0,0,.208,10.33,6.106,16.012Z" transform="translate(-128.433 -252.769)" fill="#6f35a5"/>
    <path id="Path_32" data-name="Path 32" d="M163.409,307.11s-1.841-11.318-7.739-12.7c0,0,.731,10.96,7.155,15.478Z" transform="translate(-137.766 -227.424)" fill="#6f35a5"/>
    <path id="Path_33" data-name="Path 33" d="M186.585,270.852s-.061-11.79-3.664-13.522c0,0-2.234,10.675,2.621,15.027Z" transform="translate(-157.368 -200.239)" fill="#6f35a5"/>
    <path id="Path_34" data-name="Path 34" d="M197.31,236.06s-.5-12.14-4.235-13.85c0,0-1.276,9.607,3.677,14.646Z" transform="translate(-165.081 -174.492)" fill="#6f35a5"/>
    <path id="Path_35" data-name="Path 35" d="M214.485,200.2s-.021-9.874-2.685-12.19c0,0-2.647,10.816,1.294,14.176Z" transform="translate(-178.279 -149.419)" fill="#6f35a5"/>
    <path id="Path_36" data-name="Path 36" d="M219.571,153.434,216.98,137s-3.52,13.466,2.714,19.4Z" transform="translate(-181.989 -112.021)" fill="#6f35a5"/>
    <path id="Path_37" data-name="Path 37" d="M213.4,103.646s-6.65-11.048-6.514-12.276c0,0,.707,11.579,9.073,17.346Z" transform="translate(-175.312 -78.568)" fill="#6f35a5"/>
    <path id="Path_38" data-name="Path 38" d="M209.176,78.542S202.9,62.85,200.06,61.58c0,0,8.967,4.558,9.639,16.514Z" transform="translate(-170.31 -56.728)" fill="#6f35a5"/>
    <path id="Path_39" data-name="Path 39" d="M219.99,152.886l-.43-.131c5.3-17.274,6.618-28.288,3.723-31.05l.307-.326C226.661,124.294,225.415,135.188,219.99,152.886Z" transform="translate(-184.606 -100.57)" fill="#444053"/>
    <path id="Path_40" data-name="Path 40" d="M164.765,276.418l-.635-.227c.563-1.583,1.169-3.189,1.8-4.772,5.529-13.781,10.237-26.6,13.255-36.443l.552-.267c-3.024,9.861-7.648,23.172-13.183,36.971C165.926,273.235,165.323,274.833,164.765,276.418Z" transform="translate(-143.968 -183.656)" fill="#444053"/>
    <path id="Path_41" data-name="Path 41" d="M160.326,481.958c-.085-.093-8.67-9.762-14.656-26.267a97.187,97.187,0,0,1-5.783-30.1c-.411-12.844,2.284-27.186,6.9-40.214l.5.587c-10.365,29.24-6.247,54.3-.785,69.385,5.922,16.356,14.411,25.918,14.493,26.014Z" transform="translate(-126.165 -294.117)" fill="#444053"/>
    <path id="Path_42" data-name="Path 42" d="M564.589,670.36s-6.05,7.384-1.246,18.547l-48.3,20.949-4.635.971-2.135-9.34L509.7,689.7v-6.442Z" transform="translate(-396.27 -503.046)" fill="#d5d6db"/>
    <path id="Path_43" data-name="Path 43" d="M59.16,575.578l66.855-12.188L214.6,577.5l-55.022,19.809Z" transform="translate(-43.372 -413.036)" fill="#6f35a5"/>
    <path id="Path_44" data-name="Path 44" d="M59.16,575.578l66.855-12.188L214.6,577.5l-55.022,19.809Z" transform="translate(-43.372 -413.036)" fill="#6f35a5"/>
    <path id="Path_45" data-name="Path 45" d="M140.826,652.47s-6.253,11.846.953,22.788l99.14,21.483s-6.154-9.436.318-22.534Z" transform="translate(-125.038 -489.93)" fill="#6f35a5"/>
    <path id="Path_46" data-name="Path 46" d="M140.826,652.47s-6.253,11.846.953,22.788l99.14,21.483s-6.154-9.436.318-22.534Z" transform="translate(-125.038 -489.93)" opacity="0.1"/>
    <path id="Path_47" data-name="Path 47" d="M154.447,667.86s-3.573,8.668,0,14.277" transform="translate(-135.705 -501.214)" opacity="0.1"/>
    <path id="Path_48" data-name="Path 48" d="M250.45,753.478,305.8,729.86s3.1.667,1.094,2.935-55.374,22.95-55.374,22.95L151.31,731.995Z" transform="translate(-134.57 -546.668)" fill="#6f35a5"/>
    <path id="Path_49" data-name="Path 49" d="M250.45,753.478,305.8,729.86s3.1.667,1.094,2.935-55.374,22.95-55.374,22.95L151.31,731.995Z" transform="translate(-134.57 -546.668)" opacity="0.1"/>
    <path id="Path_50" data-name="Path 50" d="M499.293,742.86s-5.337,6.4,0,16.012" transform="translate(-387.949 -556.199)" opacity="0.1"/>
    <rect id="Rectangle_6" data-name="Rectangle 6" width="25.237" height="0.267" transform="translate(113.244 194.54) rotate(-18.45)" opacity="0.1"/>
    <rect id="Rectangle_7" data-name="Rectangle 7" width="30.751" height="0.267" transform="translate(113.235 196.688) rotate(-20.82)" opacity="0.1"/>
    <rect id="Rectangle_8" data-name="Rectangle 8" width="35.642" height="0.267" transform="translate(113.396 199.221) rotate(-22.26)" opacity="0.1"/>
    <rect id="Rectangle_9" data-name="Rectangle 9" width="41.028" height="0.267" transform="translate(113.781 201.454) rotate(-24.31)" opacity="0.1"/>
    <rect id="Rectangle_10" data-name="Rectangle 10" width="44.873" height="0.267" transform="matrix(0.916, -0.401, 0.401, 0.916, 114.077, 202.541)" opacity="0.1"/>
    <rect id="Rectangle_11" data-name="Rectangle 11" width="53.699" height="0.267" transform="translate(114.698 204.366) rotate(-23.36)" opacity="0.1"/>
    <path id="Path_51" data-name="Path 51" d="M152.23,586.814,199.2,576.94l28.613,5.471L189.324,594.82Z" transform="translate(-111.605 -422.97)" fill="#fff" opacity="0.3"/>
    <path id="Path_52" data-name="Path 52" d="M579.03,659.69s2.429.979,1,2.492S524,679.5,524,679.5Z" transform="translate(-407.802 -495.224)" fill="#6f35a5"/>
    <path id="Path_53" data-name="Path 53" d="M663.886,574.18s-6.047,7.381-1.244,18.547l-48.3,20.949-4.635.977-2.135-9.34,1.449-11.785v-6.45Z" transform="translate(-469.07 -432.533)" fill="#d5d6db"/>
    <path id="Path_54" data-name="Path 54" d="M158.46,479.4l66.852-12.185L313.9,481.322l-55.022,19.809Z" transform="translate(-116.173 -342.523)" fill="#3a3768"/>
    <path id="Path_55" data-name="Path 55" d="M240.081,556.29s-6.255,11.846.95,22.788l99.14,21.483s-6.151-9.444.328-22.537Z" transform="translate(-197.804 -419.418)" fill="#3a3768"/>
    <path id="Path_56" data-name="Path 56" d="M240.081,556.29s-6.255,11.846.95,22.788l99.14,21.483s-6.151-9.444.328-22.537l-31.351-6.786Z" transform="translate(-197.804 -419.418)" opacity="0.1"/>
    <path id="Path_57" data-name="Path 57" d="M253.74,571.68s-3.571,8.665,0,14.277" transform="translate(-208.501 -430.701)" opacity="0.1"/>
    <path id="Path_58" data-name="Path 58" d="M349.74,657.3l55.35-23.618s3.093.667,1.092,2.936-55.374,22.95-55.374,22.95L250.6,635.815Z" transform="translate(-207.363 -476.155)" fill="#3a3768"/>
    <path id="Path_59" data-name="Path 59" d="M349.74,657.3l55.35-23.618s3.093.667,1.092,2.936-55.374,22.95-55.374,22.95L250.6,635.815Z" transform="translate(-207.363 -476.155)" opacity="0.1"/>
    <path id="Path_60" data-name="Path 60" d="M598.583,646.68s-5.337,6.4,0,16.012" transform="translate(-460.742 -485.686)" opacity="0.1"/>
    <rect id="Rectangle_12" data-name="Rectangle 12" width="25.237" height="0.267" transform="translate(139.743 168.875) rotate(-18.45)" opacity="0.1"/>
    <rect id="Rectangle_13" data-name="Rectangle 13" width="30.751" height="0.267" transform="translate(139.738 171.023) rotate(-20.82)" opacity="0.1"/>
    <rect id="Rectangle_14" data-name="Rectangle 14" width="35.642" height="0.267" transform="translate(139.894 173.552) rotate(-22.26)" opacity="0.1"/>
    <rect id="Rectangle_15" data-name="Rectangle 15" width="41.028" height="0.267" transform="translate(140.282 175.785) rotate(-24.31)" opacity="0.1"/>
    <rect id="Rectangle_16" data-name="Rectangle 16" width="44.873" height="0.267" transform="matrix(0.916, -0.401, 0.401, 0.916, 140.575, 176.869)" opacity="0.1"/>
    <rect id="Rectangle_17" data-name="Rectangle 17" width="53.699" height="0.267" transform="translate(141.197 178.694) rotate(-23.36)" opacity="0.1"/>
    <path id="Path_61" data-name="Path 61" d="M251.53,490.634,298.5,480.76l28.613,5.471L288.624,498.64Z" transform="translate(-184.406 -352.457)" fill="#fff" opacity="0.45"/>
    <path id="Path_62" data-name="Path 62" d="M678.352,563.51s2.426.979,1,2.49-56.025,17.317-56.025,17.317Z" transform="translate(-480.624 -424.711)" fill="#3a3768"/>
    <path id="Path_63" data-name="Path 63" d="M673.309,464.15s-6.05,13.255-1.246,24.418l-48.3,15.078-4.625.979L617,495.285l1.428-11.787v-6.45Z" transform="translate(-475.983 -351.866)" fill="#d5d6db"/>
    <path id="Path_64" data-name="Path 64" d="M167.89,369.368l66.855-12.188,88.588,14.112L268.309,391.1Z" transform="translate(-123.086 -261.856)" fill="#6f35a5"/>
    <path id="Path_65" data-name="Path 65" d="M249.535,446.26s-6.263,11.846.942,22.788l99.14,21.483s-6.154-9.444.326-22.534Z" transform="translate(-204.731 -338.751)" fill="#6f35a5"/>
    <path id="Path_66" data-name="Path 66" d="M249.535,446.26s-6.263,11.846.942,22.788l99.14,21.483s-6.154-9.444.326-22.534Z" transform="translate(-204.731 -338.751)" opacity="0.1"/>
    <path id="Path_67" data-name="Path 67" d="M263.177,461.65s-3.573,8.668,0,14.277" transform="translate(-215.419 -350.034)" opacity="0.1"/>
    <path id="Path_68" data-name="Path 68" d="M359.18,553.133l55.348-17.747s3.1.667,1.094,2.936S360.248,555.4,360.248,555.4L260.04,531.65Z" transform="translate(-214.283 -401.353)" fill="#6f35a5"/>
    <path id="Path_69" data-name="Path 69" d="M359.18,553.133l55.348-17.747s3.1.667,1.094,2.936S360.248,555.4,360.248,555.4L260.04,531.65Z" transform="translate(-214.283 -401.353)" opacity="0.1"/>
    <path id="Path_70" data-name="Path 70" d="M608.023,536.65s-5.337,6.4,0,16.012" transform="translate(-467.663 -405.019)" opacity="0.1"/>
    <rect id="Rectangle_18" data-name="Rectangle 18" width="25.237" height="0.267" transform="translate(142.263 139.512) rotate(-18.45)" opacity="0.1"/>
    <rect id="Rectangle_19" data-name="Rectangle 19" width="30.751" height="0.267" transform="translate(142.256 141.661) rotate(-20.82)" opacity="0.1"/>
    <rect id="Rectangle_20" data-name="Rectangle 20" width="35.642" height="0.267" transform="translate(142.41 144.191) rotate(-22.26)" opacity="0.1"/>
    <rect id="Rectangle_21" data-name="Rectangle 21" width="41.028" height="0.267" transform="translate(142.802 146.422) rotate(-24.31)" opacity="0.1"/>
    <rect id="Rectangle_22" data-name="Rectangle 22" width="44.873" height="0.267" transform="matrix(0.916, -0.401, 0.401, 0.916, 143.096, 147.508)" opacity="0.1"/>
    <rect id="Rectangle_23" data-name="Rectangle 23" width="53.699" height="0.267" transform="translate(143.717 149.335) rotate(-23.36)" opacity="0.1"/>
    <path id="Path_71" data-name="Path 71" d="M260.96,380.6l46.968-9.874,28.613,5.471L298.054,388.61Z" transform="translate(-191.319 -271.79)" fill="#fff" opacity="0.3"/>
    <path id="Path_72" data-name="Path 72" d="M687.782,453.48s2.428.979,1,2.493-56.026,17.317-56.026,17.317Z" transform="translate(-487.538 -344.044)" fill="#6f35a5"/>
    <path id="Path_73" data-name="Path 73" d="M374.131,149.884s-10.141-.611-8.956,6.5a1.736,1.736,0,0,0,.9,1.828s.019-.534,1.041-.35a4.552,4.552,0,0,0,1.1.053,2.3,2.3,0,0,0,1.348-.555h0s2.853-1.18,3.963-5.844c0,0,.822-1.017.8-1.278l-1.719.731a3.079,3.079,0,0,1,.125,2.263s-.056-2.218-.387-2.167c-.067,0-.889.43-.889.43s1.006,2.154.245,3.717c0,0,.288-2.653-.56-3.563l-1.206.7s1.177,2.223.379,4.038c0,0,.206-2.783-.632-3.867l-1.094.854s1.108,2.191.432,3.7c0,0-.088-3.24-.667-3.485a6.6,6.6,0,0,0-1.1,1.19s.758,1.6.286,2.431c0,0-.286-2.159-.534-2.17a7.183,7.183,0,0,0-1.051,2.4,5.193,5.193,0,0,1,.819-2.546,2.858,2.858,0,0,0-1.457.755s.147-1.011,1.695-1.1a6.558,6.558,0,0,1,1-1.15,6.248,6.248,0,0,0-2.471.283,2.8,2.8,0,0,1,2.751-.534l1.067-.881a9.209,9.209,0,0,0-2.882.029s.99-.843,3.173-.229l1.177-.7a10.694,10.694,0,0,0-2.754-.238,4.227,4.227,0,0,1,3.1.048l.838-.376s-1.262-.248-1.633-.288-.39-.141-.39-.141a4.406,4.406,0,0,1,2.375.267A10.59,10.59,0,0,0,374.131,149.884Z" transform="translate(-291.291 -121.457)" fill="#6f35a5"/>
    <path id="Path_74" data-name="Path 74" d="M908.731,259.464s-10.141-.611-8.956,6.5a1.735,1.735,0,0,0,.9,1.828s.019-.534,1.041-.35a4.7,4.7,0,0,0,1.1.053,2.293,2.293,0,0,0,1.334-.555h0s2.855-1.18,3.963-5.844c0,0,.822-1.017.8-1.278l-1.713.731a3.079,3.079,0,0,1,.125,2.263s-.056-2.218-.384-2.167c-.067,0-.891.43-.891.43s1.006,2.154.248,3.717c0,0,.288-2.653-.563-3.563l-1.206.7s1.177,2.223.379,4.038c0,0,.206-2.783-.632-3.867l-1.092.854s1.1,2.191.43,3.7c0,0-.088-3.24-.667-3.485a6.7,6.7,0,0,0-1.1,1.19s.758,1.6.288,2.431c0,0-.288-2.159-.534-2.17a7.185,7.185,0,0,0-1.052,2.4,5.177,5.177,0,0,1,.822-2.546,2.871,2.871,0,0,0-1.46.755s.149-1.011,1.695-1.1a6.66,6.66,0,0,1,1-1.153,6.273,6.273,0,0,0-2.471.286,2.8,2.8,0,0,1,2.751-.534l1.068-.881a9.21,9.21,0,0,0-2.882.029s.987-.843,3.173-.229l1.174-.7a10.7,10.7,0,0,0-2.754-.238,4.228,4.228,0,0,1,3.1.048l.841-.376s-1.265-.248-1.636-.288-.39-.141-.39-.141a4.374,4.374,0,0,1,2.375.267A10.763,10.763,0,0,0,908.731,259.464Z" transform="translate(-683.225 -201.794)" fill="#6f35a5" opacity="0.1"/>
    <path id="Path_75" data-name="Path 75" d="M432.225,298.42s-4.419-9.161-10.045-4.646a1.733,1.733,0,0,0-1.155,1.679s.467-.243.8.739a4.73,4.73,0,0,0,.491.987,2.3,2.3,0,0,0,1.145.907h0s2.421,1.916,7.035.608a4.565,4.565,0,0,0,1.5.067l-1.473-1.139a3.1,3.1,0,0,1-1.916,1.212s1.911-1.129,1.705-1.39c-.043-.053-.8-.568-.8-.568s-1.39,1.929-3.125,2.028c0,0,2.455-1.041,2.834-2.228l-1.2-.71s-1.369,2.114-3.341,2.3c0,0,2.53-1.177,3.066-2.436l-1.276-.534s-1.374,2.034-3.018,2.18c0,0,2.786-1.657,2.717-2.284a6.763,6.763,0,0,0-1.577-.382s-1.019,1.438-1.98,1.438c0,0,1.743-1.3,1.636-1.516a7.04,7.04,0,0,0-2.615.267,5.2,5.2,0,0,1,2.623-.534,2.874,2.874,0,0,0-1.372-.9s.955-.363,1.785.942a6.584,6.584,0,0,1,1.492.31,6.265,6.265,0,0,0-1.452-2.015s1.233.248,1.8,2.135l1.294.512a8.9,8.9,0,0,0-1.43-2.5s1.217.451,1.748,2.669l1.185.683a10.56,10.56,0,0,0-1.134-2.519,4.229,4.229,0,0,1,1.468,2.727l.739.55s-.4-1.225-.534-1.566-.067-.411-.067-.411a4.379,4.379,0,0,1,.929,2.2A9.959,9.959,0,0,0,432.225,298.42Z" transform="translate(-332.305 -226.041)" fill="#6f35a5" opacity="0.1"/>
    <path id="Path_76" data-name="Path 76" d="M816.005,194.8s-4.417-9.161-10.045-4.646a1.737,1.737,0,0,0-1.155,1.679s.47-.24.8.739a4.626,4.626,0,0,0,.494.99,2.29,2.29,0,0,0,1.142.9h0s2.423,1.916,7.035.611a4.586,4.586,0,0,0,1.5.064L814.313,194a3.1,3.1,0,0,1-1.913,1.214s1.908-1.132,1.7-1.393c-.043-.053-.8-.568-.8-.568s-1.388,1.929-3.125,2.028c0,0,2.458-1.041,2.837-2.226l-1.22-.7s-1.366,2.111-3.341,2.3c0,0,2.53-1.18,3.069-2.439l-1.278-.534s-1.374,2.036-3.016,2.18c0,0,2.784-1.657,2.714-2.282a6.6,6.6,0,0,0-1.575-.382s-1.019,1.436-1.983,1.436c0,0,1.745-1.3,1.639-1.516a7.057,7.057,0,0,0-2.618.267,5.193,5.193,0,0,1,2.623-.534,2.858,2.858,0,0,0-1.369-.9s.955-.363,1.785.942a6.6,6.6,0,0,1,1.492.312,6.245,6.245,0,0,0-1.454-2.018s1.233.251,1.8,2.148l1.3.512a8.9,8.9,0,0,0-1.43-2.5s1.217.451,1.745,2.669l1.187.683a10.656,10.656,0,0,0-1.137-2.519,4.215,4.215,0,0,1,1.468,2.727l.739.55s-.4-1.225-.534-1.566-.067-.408-.067-.408a4.39,4.39,0,0,1,.926,2.2A10.253,10.253,0,0,0,816.005,194.8Z" transform="translate(-613.668 -150.073)" fill="#6f35a5" opacity="0.1"/>
    <path id="Path_77" data-name="Path 77" d="M868.873,364.6s-4.417-9.164-10.053-4.649a1.737,1.737,0,0,0-1.156,1.679s.47-.24.8.739a4.633,4.633,0,0,0,.491.99,2.29,2.29,0,0,0,1.142.9h0s2.423,1.919,7.037.611c0,0,1.286.221,1.5.064l-1.473-1.139a3.1,3.1,0,0,1-1.916,1.214s1.908-1.132,1.7-1.393c-.043-.053-.8-.568-.8-.568s-1.388,1.929-3.125,2.031c0,0,2.458-1.043,2.837-2.228l-1.2-.71s-1.366,2.114-3.341,2.3c0,0,2.53-1.18,3.069-2.439l-1.278-.534s-1.374,2.034-3.016,2.18c0,0,2.786-1.657,2.717-2.284a6.628,6.628,0,0,0-1.577-.382s-1.019,1.436-1.983,1.436c0,0,1.745-1.3,1.639-1.516a7.057,7.057,0,0,0-2.618.267,5.209,5.209,0,0,1,2.626-.534,2.852,2.852,0,0,0-1.372-.9s.955-.366,1.785.942a6.582,6.582,0,0,1,1.492.31,6.294,6.294,0,0,0-1.452-2.017s1.233.251,1.8,2.148l1.294.512a8.865,8.865,0,0,0-1.43-2.5s1.217.448,1.745,2.669l1.188.68a10.659,10.659,0,0,0-1.137-2.519,4.226,4.226,0,0,1,1.47,2.73l.739.534s-.4-1.225-.534-1.566-.067-.408-.067-.408a4.364,4.364,0,0,1,.926,2.2A10.806,10.806,0,0,0,868.873,364.6Z" transform="translate(-652.422 -274.56)" fill="#6f35a5" opacity="0.1"/>
    <ellipse id="Ellipse_2" data-name="Ellipse 2" cx="6.135" cy="0.686" rx="6.135" ry="0.686" transform="translate(47.758 207.898)" fill="#6f35a5" opacity="0.1"/>
    <ellipse id="Ellipse_3" data-name="Ellipse 3" cx="6.135" cy="0.686" rx="6.135" ry="0.686" transform="translate(7.539 196.242)" fill="#6f35a5" opacity="0.1"/>
    <ellipse id="Ellipse_4" data-name="Ellipse 4" cx="6.135" cy="0.686" rx="6.135" ry="0.686" transform="translate(78.416 215.64)" fill="#6f35a5" opacity="0.1"/>
    <ellipse id="Ellipse_5" data-name="Ellipse 5" cx="6.135" cy="0.686" rx="6.135" ry="0.686" transform="translate(235.519 198.777)" fill="#6f35a5" opacity="0.1"/>
    <ellipse id="Ellipse_6" data-name="Ellipse 6" cx="6.135" cy="0.686" rx="6.135" ry="0.686" transform="translate(184.465 195.449)" fill="#6f35a5" opacity="0.1"/>
    <ellipse id="Ellipse_7" data-name="Ellipse 7" cx="7.256" cy="1.246" rx="7.256" ry="1.246" transform="translate(150.317 210.559)" fill="#6f35a5" opacity="0.1"/>
    <path id="Path_78" data-name="Path 78" d="M673.64,790.14s-10.1,5.22-4.884,11.368a1.953,1.953,0,0,0,1.911,1.241s-.283-.518.8-.931a5.206,5.206,0,0,0,1.091-.579,2.565,2.565,0,0,0,.977-1.305h0s2.065-2.765.464-7.88c0,0,.208-1.446.027-1.681l-1.228,1.684a3.438,3.438,0,0,1,1.414,2.1s-1.334-2.1-1.6-1.868c-.059.048-.608.921-.608.921s2.2,1.492,2.362,3.429c0,0-1.238-2.714-2.575-3.1l-.766,1.366s2.4,1.462,2.669,3.661c0,0-1.4-2.789-2.821-3.352l-.563,1.444s2.316,1.473,2.53,3.3c0,0-1.937-3.061-2.634-2.965a7.4,7.4,0,0,0-.379,1.775s1.636,1.094,1.665,2.17c0,0-1.51-1.908-1.743-1.783a8.042,8.042,0,0,0,.368,2.917,5.759,5.759,0,0,1-.67-2.917,3.2,3.2,0,0,0-.969,1.559s-.435-1.054,1-2.026a7.384,7.384,0,0,1,.3-1.676,7.036,7.036,0,0,0-2.21,1.687s.243-1.385,2.346-2.074l.534-1.462a9.944,9.944,0,0,0-2.751,1.676s.467-1.374,2.917-2.034l.726-1.334a12.255,12.255,0,0,0-2.781,1.334,4.726,4.726,0,0,1,3-1.727l.59-.841s-1.356.483-1.735.656-.454.088-.454.088a4.907,4.907,0,0,1,2.431-1.1A11.9,11.9,0,0,0,673.64,790.14Z" transform="translate(-512.83 -590.861)" fill="#6f35a5"/>
    <path id="Path_79" data-name="Path 79" d="M554.881,144.111c-1.745-4.742-11.352-5.188-15.521-3.979a124.615,124.615,0,0,1-12.543,2.322l-.216-.205c.432-.128.443-.443.39-.91a14.234,14.234,0,0,1,.027-1.847,4.547,4.547,0,0,0,3.864-.867h0c2.4-1.067,1.756-5.636,2.215-6.885.344-.934.715-6.437.881-9.18h.035l.019-.921c.024-.4.035-.63.035-.63s.235-6.709.694-8.067c.427-1.249.774-7.542.827-8.54v-.131l-.035-.582c.024-.424.035-.9.032-1.393,0-2.282-.238-5.156-.267-5.62v-.243c.019-.974-.1-5.852-4.254-7.7-1.529-.683-3.368-1.5-5.148-2.29-.459-3.963-1.508-7.9-1.417-11.9,0-.6.053-1.2.112-1.8,0,.173-.019.35-.021.534v1.164c.157-4.993,2.044-10.013,1.868-14.9-.016.478-.051.958-.1,1.438a15.513,15.513,0,0,0-.512-4.908,2.9,2.9,0,0,0-.838-1.521,3.45,3.45,0,0,0-1.462-.579,29.413,29.413,0,0,0-3.84-.715,5.93,5.93,0,0,0-.865-1.679c-2.706-3.715-6.714-7.205-11.454-8.006-2.378-.4-5.113-.067-6.73,1.633a5.044,5.044,0,0,0-.475.48c-.87,1.038-1.244,2.4-2.135,3.437-.059.069-.125.133-.19.2-1.745,1.561-4.465,1.887-6.4,3.288a7.681,7.681,0,0,0-.958.835A16.246,16.246,0,0,0,488.4,56a10.549,10.549,0,0,0-2.047,3.971c-.558,2.936,1.441,5.719,1.812,8.673.827,6.61-6.487,12.476-5.1,19a8.7,8.7,0,0,0,2.354,4.224c-2.853,2.583-5.281,5.089-5.281,5.089V97.1h-.451l.045.534h-.045l.248,2.9-.248,4.216v.4h.016a67.432,67.432,0,0,0,.8,8.273c.459,1.358.691,8.067.691,8.067s.507,9.482.971,10.736-.195,5.81,2.215,6.885h0a5.07,5.07,0,0,0,2.42,1c-.123,1-.045,1.721.352,1.948a1.164,1.164,0,0,0,.56.16,5.939,5.939,0,0,0-.435.761,11.3,11.3,0,0,1-2.8-.659c-2.589-1.067-11.179-3.469-13.674-1.78s-8.5,3.221-5.727,10.021,4.064,6.971,4.064,6.971a9.872,9.872,0,0,1,2.218,2.228c.833,1.252,8.59,4.115,10.531,4.115a19,19,0,0,1,2.469.123s-2.106,1.847-1.825,2.92-.641,9.66-.641,9.66,2.135,2.151,3.048-.67l.032.043c.171.232,1.094,1.281,2.831-.043a15.878,15.878,0,0,1,2.258-1.43l8.412-1.19a23.8,23.8,0,0,1,2.634-.019,5.5,5.5,0,0,0,3.469-1.292c1.743.662,3.7,1.385,4.633,1.649,1.889.534,10.573,2.863,12.6,2.135a2.821,2.821,0,0,0,1.094-.779l1.937.061-.907.181s1.767.029,4.168.061l-.1.059,3.013-.027c4.409.04,9.362.053,10.013-.093a70.335,70.335,0,0,1,7.878,0h.435s5.82-1.161,3.419-7.067c-1.847-4.537-7.523-5.855-10.042-6.218.71-.141,1.321-.251,1.727-.315,1.759-.267,5.174-1.868,5.452-2.415s3.141-2.135,3.88-3.04S556.634,148.853,554.881,144.111Zm-48.209,13.271-.286.093-.192.064-.368.363c-.294-.2-.609-.406-.937-.619C505.468,157.318,506.063,157.353,506.672,157.382Zm25.435,7.52Z" transform="translate(-364.083 -43.42)" fill="url(#linear-gradient)"/>
    <path id="Path_80" data-name="Path 80" d="M686.65,274.582s4.083,10.675,6.4,9.607,1.692-5.6,2.135-6.848.934-10.675.934-10.675.224-6.672.667-8.022c.411-1.241.745-7.5.8-8.484v-.131l-.44-7.739-2.493-.622-5.78,2.135-.8,4.571-.312,1.785-.133.761Z" transform="translate(-527.046 -188.759)" fill="#be6f72"/>
    <path id="Path_81" data-name="Path 81" d="M691.69,358.3s3.9,3.189,5.07,3.469,1.895,2.767,1.895,2.767" transform="translate(-530.741 -274.264)" opacity="0.1"/>
    <path id="Path_82" data-name="Path 82" d="M536.942,276.332s-4.083,10.675-6.4,9.607-1.692-5.6-2.135-6.848-.934-10.675-.934-10.675-.224-6.672-.667-8.022c-.411-1.241-.745-7.5-.8-8.484v-.131l.443-7.739,2.493-.622,5.78,2.135.8,4.571.312,1.785.133.761Z" transform="translate(-409.268 -190.042)" fill="#be6f72"/>
    <rect id="Rectangle_24" data-name="Rectangle 24" width="9.113" height="14.205" transform="translate(145.148 29.166)" fill="#3e373a"/>
    <rect id="Rectangle_25" data-name="Rectangle 25" width="9.113" height="14.205" transform="translate(145.148 29.166)" opacity="0.1"/>
    <path id="Path_83" data-name="Path 83" d="M554.913,404.257s-3.114,3.424-1.959,4.046,8.63,12.276,8.63,12.276,24.552,3.024,29.182-1.513,4.537-12.641,4.537-12.641-3.72.8-4.126.366-2.634-2.533-2.634-2.533S557.047,402.346,554.913,404.257Z" transform="translate(-428.84 -307.334)" fill="#4b4b5b"/>
    <path id="Path_84" data-name="Path 84" d="M554.913,404.257s-3.114,3.424-1.959,4.046,8.63,12.276,8.63,12.276,24.552,3.024,29.182-1.513,4.537-12.641,4.537-12.641-3.72.8-4.126.366-2.634-2.533-2.634-2.533S557.047,402.346,554.913,404.257Z" transform="translate(-428.84 -307.334)" opacity="0.02"/>
    <path id="Path_85" data-name="Path 85" d="M580.755,176.943l-8.006,6.4-2.42.176-.889.064-14.926,1.094-15.478-1.132-2.3-.168-2.936-.214L527.66,177.3a105.11,105.11,0,0,1,8.15-7.8,16.722,16.722,0,0,1,3.95-2.639l.176-.061a4.393,4.393,0,0,0,1.692-1.18c3-3.1,5.783-10.744,5.783-10.744s13.255-6.848,11.654,2.135,5.959,6.762,5.959,6.762l2.492,1.137.985.451,2.511,1.15,5.666,2.6C581.124,171.161,580.755,176.943,580.755,176.943Z" transform="translate(-410.485 -123.298)" fill="#be6f72"/>
    <circle id="Ellipse_8" data-name="Ellipse 8" cx="11.921" cy="11.921" r="11.921" transform="translate(131.487 15.054)" opacity="0.1"/>
    <path id="Path_86" data-name="Path 86" d="M579.557,225.009H526v-.131l.443-7.739a105.118,105.118,0,0,1,8.15-7.8l33.625-1.334,1.564-1.649,5.665,2.6c4.449,2.044,4.091,7.827,4.091,7.827S580.147,223.487,579.557,225.009Z" transform="translate(-409.268 -162.872)" opacity="0.1"/>
    <path id="Path_87" data-name="Path 87" d="M579.557,224.009H526v-.131l.443-7.739a105.121,105.121,0,0,1,8.15-7.8l33.625-1.334,1.564-1.649,5.665,2.6c4.449,2.044,4.091,7.827,4.091,7.827S580.147,222.487,579.557,224.009Z" transform="translate(-409.268 -162.138)" fill="#ff7081"/>
    <path id="Path_88" data-name="Path 88" d="M584.626,187.514s8.449,10.765,19.7-.222,1.246,24.506,1.246,24.506l-24.285,2.882Z" transform="translate(-449.803 -147.346)" opacity="0.1"/>
    <path id="Path_89" data-name="Path 89" d="M584.626,189.514s8.449,10.765,19.7-.221,1.246,24.506,1.246,24.506l-24.285,2.882Z" transform="translate(-449.803 -148.812)" fill="#e7c7ca"/>
    <path id="Path_90" data-name="Path 90" d="M585.993,201.79l.894,13.634.958,4.537.731,3.469s1.868,26.686,1.334,28.021.267,2.4.379,3.112-.112,2.492-.024,3.293,0,1.156-2.044.87-4.894-.782-4.894-.782-7.205.534-9.7-.355-7.205-.891-7.205-.891-7.117.179-9.428-.088-3.56,2.847-5.07,1.956,1.777-9.516,2.845-12.009-1.422-8.807-1.422-8.807l3.2-17.765.713-4.027V203.3l.176-.061a4.393,4.393,0,0,0,1.692-1.18l.8,12.74,25.085.891V201.35" transform="translate(-427.991 -159.199)" opacity="0.1"/>
    <path id="Path_91" data-name="Path 91" d="M585.993,199.79l.894,13.634.958,4.537.731,3.469s1.868,26.686,1.334,28.021.267,2.4.379,3.112-.112,2.493-.024,3.293,0,1.156-2.044.87-4.894-.782-4.894-.782-7.205.534-9.7-.355-7.205-.891-7.205-.891-7.117.179-9.428-.088-3.56,2.847-5.07,1.956,1.777-9.516,2.845-12.009-1.422-8.807-1.422-8.807l3.2-17.765.713-4.027V201.3l.176-.061a4.392,4.392,0,0,0,1.692-1.18l.8,12.74,25.085.891V199.35" transform="translate(-427.991 -157.732)" fill="#ff7081"/>
    <path id="Path_92" data-name="Path 92" d="M578.623,59.834a2.941,2.941,0,0,0-.8-1.51,3.277,3.277,0,0,0-1.409-.576,27.842,27.842,0,0,0-3.7-.71,5.931,5.931,0,0,0-.8-1.663c-2.615-3.693-6.485-7.176-11.038-7.963-2.383-.414-5.145-.043-6.672,1.836-.838,1.033-1.2,2.4-2.044,3.416-1.631,1.969-4.574,2.212-6.629,3.736a12.281,12.281,0,0,0-2.669,3.088,10.591,10.591,0,0,0-1.972,3.947c-.534,2.911,1.39,5.687,1.745,8.625.8,6.573-6.245,12.4-4.913,18.889.777,3.781,4.27,6.445,7.883,7.8,1.273.478,2.727.953,3.322,2.175.267.534.312,1.15.563,1.689.843,1.8,3.616,1.868,5.105.558s1.959-3.429,2.135-5.407c.715-8.636-2.743-17.167-2.34-25.825.12-2.618.857-5.588,3.2-6.773,3.157-1.6,6.955,1.067,10.429.558a20.691,20.691,0,0,1,1,12.625c-.552,2.3-1.508,4.537-1.577,6.912-.1,3.616,1.847,6.92,3.533,10.117a5.382,5.382,0,0,1,.712,1.951,4.7,4.7,0,0,1-.382,2.042c-.953,2.565-2.6,4.945-2.783,7.675a1.24,1.24,0,0,0,.2.913,1.147,1.147,0,0,0,.688.31c2.882.494,5.375-2.06,6.781-4.625a21.679,21.679,0,0,0,2.674-9.212c.291-5.433-1.657-10.779-1.537-16.217C577.465,72.025,580.259,65.8,578.623,59.834Z" transform="translate(-417.736 -46.229)" opacity="0.1"/>
    <path id="Path_93" data-name="Path 93" d="M579.623,58.834a2.941,2.941,0,0,0-.8-1.51,3.277,3.277,0,0,0-1.409-.576,27.839,27.839,0,0,0-3.7-.71,5.931,5.931,0,0,0-.8-1.663c-2.615-3.693-6.485-7.176-11.038-7.963-2.383-.414-5.145-.043-6.672,1.836-.838,1.033-1.2,2.4-2.044,3.416-1.631,1.969-4.574,2.212-6.629,3.736a12.282,12.282,0,0,0-2.669,3.088,10.591,10.591,0,0,0-1.972,3.947c-.534,2.911,1.39,5.687,1.745,8.625.8,6.573-6.245,12.4-4.913,18.889.777,3.781,4.27,6.445,7.883,7.8,1.273.478,2.727.953,3.322,2.175.267.534.312,1.15.563,1.689.843,1.8,3.616,1.868,5.105.558s1.959-3.429,2.135-5.407c.715-8.636-2.743-17.167-2.34-25.825.12-2.618.857-5.588,3.2-6.773,3.157-1.6,6.955,1.067,10.429.558a20.69,20.69,0,0,1,1,12.625c-.552,2.3-1.508,4.537-1.577,6.912-.1,3.616,1.847,6.92,3.533,10.117a5.382,5.382,0,0,1,.713,1.951,4.7,4.7,0,0,1-.382,2.042c-.953,2.565-2.6,4.945-2.783,7.675a1.24,1.24,0,0,0,.2.913,1.147,1.147,0,0,0,.688.31c2.882.494,5.375-2.06,6.781-4.625a21.681,21.681,0,0,0,2.674-9.212c.291-5.433-1.657-10.779-1.537-16.217C578.465,71.025,581.259,64.8,579.623,58.834Z" transform="translate(-418.469 -45.496)" fill="#3e373a"/>
    <path id="Path_94" data-name="Path 94" d="M581.79,472.092l10.587.339-1.518-7.851-8.11.771Z" transform="translate(-426.531 -340.594)" fill="#c3c7d9"/>
    <path id="Path_95" data-name="Path 95" d="M658.151,420.976c-.712.889-3.469,2.49-3.736,3.024s-3.557,2.135-5.249,2.4-7.027,1.425-8.006,2.047c-.7.448-6.335,1.868-10.037,2.655a28.483,28.483,0,0,1-3.04.547c-1.6.088-19.123-5.871-19.123-5.871l3.379-3.469.187-.064c.955-.323,5.369-1.815,7.819-2.525,2.759-.8,5.962-4.091,5.962-4.091s4.713-1.6,5.337-1.78-1.6-6.226-1.6-6.226,10.229-1.42,14.232-2.623,13.255-.758,14.944,3.958S658.874,420.087,658.151,420.976Z" transform="translate(-470.089 -308.087)" fill="#4b4b5b"/>
    <path id="Path_96" data-name="Path 96" d="M556.553,496.848s-2.044,2.135-4.091,1.959-9.2.534-9.2.534a14.347,14.347,0,0,0-3.605,2.09c-1.673,1.318-2.562.267-2.727.043l-.029-.043c-.891,2.8-2.936.667-2.936.667s.889-8.54.617-9.607,1.759-2.9,1.759-2.9l2.4-.611,6.084-1.558,8.718,3.024Z" transform="translate(-415.104 -368.927)" fill="#e7c7ca"/>
    <path id="Path_97" data-name="Path 97" d="M538.726,493.26l-1.8,12.495-.029-.043c-.891,2.8-2.936.667-2.936.667s.889-8.54.617-9.607,1.759-2.9,1.759-2.9Z" transform="translate(-415.104 -373.208)" opacity="0.1"/>
    <path id="Path_98" data-name="Path 98" d="M599,360.08s4.713,1.6,8.807,0" transform="translate(-462.787 -275.569)" opacity="0.1"/>
    <path id="Path_99" data-name="Path 99" d="M659.29,371.42a3.892,3.892,0,0,0,3.469,0" transform="translate(-506.988 -283.883)" opacity="0.1"/>
    <path id="Path_100" data-name="Path 100" d="M659.29,378.868s3.29.44,3.915-.448" transform="translate(-506.988 -289.015)" opacity="0.1"/>
    <path id="Path_101" data-name="Path 101" d="M655.29,393.618s6.181-.8,7.715-1.868" transform="translate(-504.055 -298.787)" opacity="0.1"/>
    <path id="Path_102" data-name="Path 102" d="M584.62,391.75s3.469,1.956,6.05,1.868" transform="translate(-452.244 -298.787)" opacity="0.1"/>
    <path id="Path_103" data-name="Path 103" d="M631.113,480.037a28.474,28.474,0,0,1-3.04.547c-1.6.088-19.124-5.871-19.124-5.871l3.378-3.469.187-.064c.534.376.971.7,1.284.945,1.47,1.158,2.89-.355,3.424-.355s5.159,3.824,5.159,3.824,4.27.979,4.982,1.868,3.2.713,3.645,1.334A2.379,2.379,0,0,1,631.113,480.037Z" transform="translate(-470.082 -357.02)" opacity="0.1"/>
    <path id="Path_104" data-name="Path 104" d="M496.887,409.074s-4.318.248-6.808-.8-10.763-3.469-13.164-1.769-8.185,3.2-5.516,9.965,3.915,6.938,3.915,6.938a9.635,9.635,0,0,1,2.135,2.215c.8,1.246,8.273,4.091,10.141,4.091s5.159,0,9.783,3.2a20.107,20.107,0,0,0,8.807,3.56s5.871,2.4,7.7,2.936,10.181,2.845,12.14,2.135,3.2-5.161,3.2-5.161.889-4,.443-4.625-2.936-.446-3.645-1.334-4.982-1.868-4.982-1.868-4.614-3.827-5.148-3.827-1.953,1.51-3.424.355a78.1,78.1,0,0,0-9.209-5.871C499.875,417.435,496.887,409.074,496.887,409.074Z" transform="translate(-368.733 -309.173)" fill="#4b4b5b"/>
    <path id="Path_105" data-name="Path 105" d="M536.27,427.136a5.1,5.1,0,0,1,4.374,1.155c2.135,1.78,9.319,5.353,9.319,5.353" transform="translate(-416.797 -324.655)" opacity="0.1"/>
    <path id="Path_106" data-name="Path 106" d="M705.256,427s-9.519,1.441-11.3,3.4" transform="translate(-532.405 -324.631)" opacity="0.1"/>
    <path id="Path_107" data-name="Path 107" d="M710.084,500.763h-.419a71.746,71.746,0,0,0-7.587,0c-1.156.267-16.458,0-16.458,0l2.992-.622s-1.11-3.891-.406-4.214c0,0-4-2.637-.985-4.417a9.364,9.364,0,0,1,6.271-1.03l7.576-2.567,1.454-.494s8.54.446,10.851,6.317S710.084,500.763,710.084,500.763Z" transform="translate(-526.291 -368.927)" fill="#e7c7ca"/>
    <path id="Path_108" data-name="Path 108" d="M752.525,500.8h-.419c2.484-2.05,8.1-8.289-8.6-12.836l1.454-.494s8.54.446,10.851,6.317S752.525,500.8,752.525,500.8Z" transform="translate(-568.732 -368.963)" opacity="0.1"/>
    <circle id="Ellipse_9" data-name="Ellipse 9" cx="0.467" cy="0.467" r="0.467" transform="translate(167.626 123.986)" fill="#4b4b5b"/>
    <circle id="Ellipse_10" data-name="Ellipse 10" cx="0.467" cy="0.467" r="0.467" transform="translate(164.912 124.757)" fill="#4b4b5b"/>
    <g id="Group_6" data-name="Group 6" transform="translate(120.154 16.789)" opacity="0.1">
      <path id="Path_109" data-name="Path 109" d="M617,116.314a20.7,20.7,0,0,0-1.532-8.577c-3.469.518-7.269-2.159-10.429-.558-2.338,1.185-3.072,4.155-3.2,6.773-.032.691-.037,1.382-.024,2.074,0-.246,0-.494.024-.739.123-2.618.857-5.588,3.2-6.773,3.16-1.6,6.954,1.067,10.429.558A20.649,20.649,0,0,1,617,116.314Z" transform="translate(-584.997 -106.568)"/>
      <path id="Path_110" data-name="Path 110" d="M552.87,117.3a8.9,8.9,0,0,0-.035-1.745c-.283-2.348-1.567-4.593-1.8-6.882-.3,2.762,1.46,5.415,1.8,8.217A1.672,1.672,0,0,1,552.87,117.3Z" transform="translate(-547.752 -108.04)"/>
      <path id="Path_111" data-name="Path 111" d="M558,209.179c-.165,1.98-.633,4.1-2.135,5.409s-4.27,1.241-5.105-.558c-.267-.534-.307-1.156-.566-1.689-.592-1.222-2.05-1.7-3.323-2.175-3.616-1.353-7.1-4-7.88-7.8a8.187,8.187,0,0,1-.141-1.041,8.413,8.413,0,0,0,.141,2.375c.777,3.781,4.27,6.442,7.88,7.8,1.273.478,2.73.953,3.323,2.175.267.534.312,1.15.566,1.689.841,1.8,3.613,1.868,5.105.558s1.956-3.429,2.135-5.409a30.506,30.506,0,0,0,.083-3.133C558.084,207.986,558.05,208.583,558,209.179Z" transform="translate(-538.823 -175.973)"/>
      <path id="Path_112" data-name="Path 112" d="M687.93,119.968v1.156c.149-4.964,1.969-9.954,1.791-14.814C689.582,110.8,688.031,115.4,687.93,119.968Z" transform="translate(-648.139 -106.31)"/>
      <path id="Path_113" data-name="Path 113" d="M654.97,199.453a3.439,3.439,0,0,0,.061-.963,5.339,5.339,0,0,0-.713-1.951c-1.542-2.935-3.3-5.94-3.509-9.2,0,.139-.019.267-.021.416-.107,3.613,1.844,6.92,3.531,10.117A6.41,6.41,0,0,1,654.97,199.453Z" transform="translate(-620.906 -165.716)"/>
      <path id="Path_114" data-name="Path 114" d="M665.155,216.794a21.717,21.717,0,0,1-2.693,9.212c-1.409,2.565-3.9,5.118-6.784,4.625a1.134,1.134,0,0,1-.689-.312.668.668,0,0,1-.125-.208c-.032.208-.059.419-.075.632a1.23,1.23,0,0,0,.2.91,1.134,1.134,0,0,0,.689.312c2.885.494,5.375-2.06,6.784-4.625a21.716,21.716,0,0,0,2.693-9.212c.032-.624.035-1.246.016-1.868C665.166,216.439,665.166,216.615,665.155,216.794Z" transform="translate(-623.829 -186.918)"/>
    </g>
    <path id="Path_115" data-name="Path 115" d="M695.31,509.857s6.754,2.834,11.208-3.437" transform="translate(-533.395 -382.856)" fill="none" stroke="#000" stroke-miterlimit="10" stroke-width="1" opacity="0.1"/>
    <path id="Path_116" data-name="Path 116" d="M700.29,533.384a13.168,13.168,0,0,1,12.543-.117" transform="translate(-537.046 -401.429)" fill="none" stroke="#000" stroke-miterlimit="10" stroke-width="1" opacity="0.1"/>
    <path id="Path_117" data-name="Path 117" d="M561.93,527.286s2.316-5.225,8.5-1.241" transform="translate(-435.61 -396.146)" fill="none" stroke="#000" stroke-miterlimit="10" stroke-width="1" opacity="0.1"/>
    <path id="Path_118" data-name="Path 118" d="M533.79,230.906l4.724-4.27s18.315-1.2,19.073,5.025c0,0,6.493-7.381,20.148-5.738l5.778,4.6-15.969,7.008-15.518,5.383L540.6,237.8Z" transform="translate(-414.979 -177.039)" opacity="0.1"/>
    <path id="Path_119" data-name="Path 119" d="M533.79,231.906l4.724-4.27s18.315-1.2,19.073,5.025c0,0,6.493-7.381,20.148-5.738l5.778,4.6-15.969,7.008-15.518,5.383L540.6,238.8Z" transform="translate(-414.979 -177.773)" fill="#d5d6db"/>
    <path id="Path_120" data-name="Path 120" d="M437.38,204.83l2.09,25,22.15,1.113-.961-24.89-.019-.419Z" transform="translate(-320.659 -150.163)" opacity="0.1"/>
    <path id="Path_121" data-name="Path 121" d="M437.38,202.83l2.09,25,22.15,1.113-.961-24.89-.019-.419Z" transform="translate(-320.659 -148.696)" fill="#6f35a5"/>
    <path id="Path_122" data-name="Path 122" d="M572.559,202.83l-22.849,3.427v25.109l22.329-3.226Z" transform="translate(-403.012 -148.696)" opacity="0.1"/>
    <path id="Path_123" data-name="Path 123" d="M572.559,200.83l-22.849,3.427v25.109l22.329-3.226Z" transform="translate(-403.012 -147.23)" fill="#6f35a5"/>
    <path id="Path_124" data-name="Path 124" d="M581.233,223.79l-12.343,1.372.27,4.206,12.065-1.318Z" transform="translate(-417.073 -164.063)" fill="#fff" opacity="0.3"/>
    <path id="Path_125" data-name="Path 125" d="M536.817,328.921l1.257,3.381a4.2,4.2,0,0,0,3.912.8c2.044-.8,3.827-1.2,4.715-1.977s2.135-4.694,2.135-4.694,1.246-4.27,2.49-5.337,4.537-15.774,0-14.336-8.006,14.782-8.006,14.782a3.164,3.164,0,0,1-1.956,1.068c-1.155.091-3.469-.179-3.915.8S535.482,326.965,536.817,328.921Z" transform="translate(-416.805 -236.405)" fill="#be6f72"/>
    <path id="Path_126" data-name="Path 126" d="M619.881,254.491a7.686,7.686,0,0,1-6.7-1.671l.963,24.888a6.792,6.792,0,0,0,5.738,1.895Z" transform="translate(-473.183 -196.933)" opacity="0.1"/>
    <path id="Path_127" data-name="Path 127" d="M619.881,252.491a7.686,7.686,0,0,1-6.7-1.671l.963,24.888a6.792,6.792,0,0,0,5.738,1.895Z" transform="translate(-473.183 -195.467)" fill="#6f35a5"/>
    <path id="Path_128" data-name="Path 128" d="M619.881,252.491a7.686,7.686,0,0,1-6.7-1.671l.963,24.888a6.792,6.792,0,0,0,5.738,1.895Z" transform="translate(-473.183 -195.467)" opacity="0.1"/>
    <path id="Path_129" data-name="Path 129" d="M640.29,239.756s9.295-2.842,11.718-2.442" transform="translate(-493.058 -185.537)" opacity="0.1"/>
    <path id="Path_130" data-name="Path 130" d="M572.445,237.422s-9.009-2.135-10.515-1.529" transform="translate(-435.61 -184.444)" opacity="0.1"/>
    <path id="Path_131" data-name="Path 131" d="M662.25,243.813s6.215-2.279,8.462-1.2" transform="translate(-509.158 -189.239)" opacity="0.1"/>
    <path id="Path_132" data-name="Path 132" d="M650.52,449.285a20.435,20.435,0,0,1,3.064-1.9,49.977,49.977,0,0,0,4.537-2.773" transform="translate(-500.558 -337.541)" opacity="0.1"/>
    <path id="Path_133" data-name="Path 133" d="M542.8,360.08s-3.9,3.189-5.07,3.469-1.895,2.767-1.895,2.767" transform="translate(-416.475 -275.569)" opacity="0.1"/>
    <path id="Path_134" data-name="Path 134" d="M669.107,327.163l-1.244,3.389a4.2,4.2,0,0,1-3.915.8c-2.047-.8-3.824-1.2-4.715-1.977s-2.135-4.694-2.135-4.694-1.244-4.27-2.49-5.337-4.537-15.774,0-14.336,8.006,14.782,8.006,14.782a3.164,3.164,0,0,0,1.956,1.067c1.156.091,3.469-.179,3.915.8S670.442,325.215,669.107,327.163Z" transform="translate(-501.853 -235.122)" fill="#be6f72"/>
    <path id="Path_135" data-name="Path 135" d="M707.15,364.94s2.549,1.639,2.538,3.6" transform="translate(-542.076 -279.132)" opacity="0.1"/>
    <circle id="Ellipse_11" data-name="Ellipse 11" cx="11.921" cy="11.921" r="11.921" transform="translate(131.53 14.47)" fill="#be6f72"/>
    <path id="Path_136" data-name="Path 136" d="M581.854,95.773a24.429,24.429,0,0,0,4.1-1.55c3.093-1.086,6.514-.342,9.645.638a12.508,12.508,0,0,0,3.68.8,3.725,3.725,0,0,0,3.24-1.6,3.62,3.62,0,0,0-.021-3.344,9.417,9.417,0,0,0-2.178-2.687c-2.775-2.621-6.218-5.07-10.026-4.8a13.8,13.8,0,0,0-4.406,1.262,48.576,48.576,0,0,0-5.172,2.6c-1.284.745-3.661,1.74-4.4,3.1C574.63,93.259,579.239,96.184,581.854,95.773Z" transform="translate(-445.889 -72.582)" fill="#3e373a"/>
    <path id="Path_137" data-name="Path 137" d="M602.511,113.874a3.724,3.724,0,0,1-3.24,1.6,12.519,12.519,0,0,1-3.683-.785c-3.13-.979-6.549-1.727-9.645-.638-1.38.483-2.65,1.334-4.1,1.548-2.108.331-5.5-1.505-5.871-3.84-.414,2.7,3.523,5.009,5.871,4.641a24.561,24.561,0,0,0,4.1-1.548c3.1-1.089,6.514-.342,9.645.638a12.012,12.012,0,0,0,3.683.785,3.753,3.753,0,0,0,3.24-1.6,3.125,3.125,0,0,0,.374-1.951A2.875,2.875,0,0,1,602.511,113.874Z" transform="translate(-445.886 -93.517)" opacity="0.1"/>
    <path id="Path_138" data-name="Path 138" d="M1026.036,661.63s1.583,2.068-.731,5.193-4.219,5.762-3.451,7.71c0,0,3.491-5.8,6.33-5.884S1029.156,665.118,1026.036,661.63Z" transform="translate(-772.669 -496.646)" fill="#6f35a5"/>
    <path id="Path_139" data-name="Path 139" d="M1026.285,661.63a2.565,2.565,0,0,1,.323.649c2.77,3.256,4.249,6.3,1.583,6.37-2.482.072-5.457,4.51-6.17,5.628a2.632,2.632,0,0,0,.083.267s3.491-5.8,6.33-5.884S1029.4,665.118,1026.285,661.63Z" transform="translate(-772.918 -496.646)" opacity="0.1"/>
    <path id="Path_140" data-name="Path 140" d="M1048,670.231c0,.729-.083,1.318-.181,1.318s-.184-.59-.184-1.318.1-.384.2-.384S1048,669.5,1048,670.231Z" transform="translate(-791.693 -502.611)" fill="#ffd037"/>
    <path id="Path_141" data-name="Path 141" d="M1049.365,673.36c-.638.347-1.2.558-1.243.47s.43-.443,1.067-.8.387-.1.435,0S1050.005,673.01,1049.365,673.36Z" transform="translate(-792.051 -504.869)" fill="#ffd037"/>
    <path id="Path_142" data-name="Path 142" d="M996.909,661.63s-1.583,2.068.731,5.193,4.219,5.762,3.448,7.71c0,0-3.488-5.8-6.33-5.884S993.8,665.118,996.909,661.63Z" transform="translate(-751.906 -496.646)" fill="#6f35a5"/>
    <path id="Path_143" data-name="Path 143" d="M996.909,661.63a2.56,2.56,0,0,0-.323.649c-2.77,3.256-4.249,6.3-1.583,6.37,2.479.072,5.458,4.51,6.17,5.628a2.046,2.046,0,0,1-.085.267s-3.488-5.8-6.33-5.884S993.8,665.118,996.909,661.63Z" transform="translate(-751.906 -496.646)" opacity="0.1"/>
    <path id="Path_144" data-name="Path 144" d="M995.64,670.231c0,.729.08,1.318.182,1.318s.184-.59.184-1.318-.1-.384-.2-.384S995.64,669.5,995.64,670.231Z" transform="translate(-753.578 -502.611)" fill="#ffd037"/>
    <path id="Path_145" data-name="Path 145" d="M990.793,673.36c.638.347,1.2.558,1.244.47s-.43-.443-1.068-.8-.387-.1-.435,0S990.153,673.01,990.793,673.36Z" transform="translate(-749.74 -504.869)" fill="#ffd037"/>
    <ellipse id="Ellipse_12" data-name="Ellipse 12" cx="16.546" cy="2.538" rx="16.546" ry="2.538" transform="translate(232.639 188.642)" fill="#6f35a5" opacity="0.1"/>
    <path id="Path_146" data-name="Path 146" d="M1007.435,696.876l-.08.646-.112.913-.045.382-.112.913-.048.382-.109.91-1.268,10.381c-.112.926-1.625,1.649-3.453,1.649h-6.578c-1.828,0-3.339-.723-3.453-1.649l-1.268-10.381-.112-.91-.045-.382-.112-.913-.048-.382-.109-.913-.08-.646c-.061-.534.755-.966,1.791-.966h13.455C1006.68,695.91,1007.5,696.35,1007.435,696.876Z" transform="translate(-749.735 -521.778)" fill="#65617d"/>
    <path id="Path_147" data-name="Path 147" d="M919,658.53l-.109.913H902.242l-.112-.913Z" transform="translate(-661.383 -482.786)" fill="#9d9cb5"/>
    <path id="Path_148" data-name="Path 148" d="M919.279,663.38l-.109.913H902.832l-.112-.913Z" transform="translate(-661.816 -486.342)" fill="#9d9cb5"/>
    <path id="Path_149" data-name="Path 149" d="M919.561,668.23l-.112.913h-16.02l-.109-.913Z" transform="translate(-662.256 -489.897)" fill="#9d9cb5"/>
  </g>
</svg>
